<svg xmlns="http://www.w3.org/2000/svg" viewBox="0 0 100 100" width="100" height="100">
  <!-- Background -->
  <rect width="100" height="100" rx="18" fill="#0a0a0a"/>

  <!-- Bag body (trapezoid) -->
  <path d="M18 42 Q18 38 22 38 L78 38 Q82 38 82 42 L78 88 Q78 92 74 92 L26 92 Q22 92 22 88 Z" fill="#C9A84C"/>

  <!-- Bag handle left -->
  <path d="M35 38 Q35 22 50 22 Q65 22 65 38" fill="none" stroke="#C9A84C" stroke-width="5" stroke-linecap="round"/>

  <!-- V shape cut into bag body (black) -->
  <polygon points="30,48 50,78 70,48 62,48 50,65 38,48" fill="#0a0a0a"/>

  <!-- Gold outline on V -->
  <polygon points="30,48 50,78 70,48 62,48 50,65 38,48" fill="none" stroke="#E8C76A" stroke-width="1"/>
</svg>
